<svg xmlns="http://www.w3.org/2000/svg" width="32" height="32" viewBox="0 0 375 375">
  <defs>
    <clipPath id="clip">
      <path d="M 41.066406 80.421875 L 333.566406 80.421875 L 333.566406 294.921875 L 41.066406 294.921875 Z M 41.066406 80.421875 " clip-rule="nonzero"/>
    </clipPath>
  </defs>
  <path fill="#ffbd59" d="M 317.4375 286.199219 C 321.75 282.9375 325.832031 279.410156 329.679688 275.613281 C 333.53125 271.820312 337.117188 267.789062 340.441406 263.523438 C 343.761719 259.257812 346.792969 254.796875 349.53125 250.132812 C 352.269531 245.472656 354.695312 240.652344 356.800781 235.671875 C 372.210938 199.664062 364.542969 163.296875 346.546875 127.820312 C 296.160156 28.582031 173.449219 27.851562 87.519531 75.472656 C 22.117188 111.714844 -14.980469 182.488281 24.71875 252.046875 C 27.007812 255.863281 29.699219 259.371094 32.792969 262.566406 C 35.890625 265.761719 39.3125 268.5625 43.054688 270.96875 C 43.496094 271.234375 43.824219 271.601562 44.03125 272.074219 C 44.242188 272.542969 44.296875 273.03125 44.195312 273.539062 C 43.710938 277.0625 42.878906 280.503906 41.699219 283.863281 C 37.203125 296.945312 32.316406 310.128906 27.039062 323.421875 C 25.433594 327.472656 26.414062 330.183594 29.945312 331.519531 C 31.082031 331.914062 32.214844 331.914062 33.351562 331.519531 C 45.050781 327.703125 56.382812 323.683594 67.347656 319.464844 C 71.5 317.890625 75.792969 316.972656 80.222656 316.714844 C 84.65625 316.457031 89.027344 316.867188 93.332031 317.949219 C 170.828125 337.425781 251.660156 336.460938 317.4375 286.199219 Z M 317.4375 286.199219 " fill-opacity="1" fill-rule="nonzero"/>
  <g clip-path="url(#clip)">
    <path fill="#000000" d="M 148.355469 191.628906 C 148.355469 220.109375 128.867188 239.136719 103.144531 239.136719 C 77.222656 239.136719 57.734375 220.109375 57.734375 191.628906 C 57.734375 163.148438 77.222656 144.121094 103.144531 144.121094 C 128.867188 144.1875 148.355469 163.148438 148.355469 191.628906 Z M 92.25 195.304688 C 88.511719 195.304688 85.492188 198.324219 85.492188 202.0625 C 85.492188 205.804688 88.511719 208.820312 92.25 208.820312 C 95.992188 208.820312 99.007812 205.804688 99.007812 202.0625 C 99.007812 198.386719 95.992188 195.304688 92.25 195.304688 Z M 103.144531 224.765625 C 121.058594 224.765625 134.640625 211.511719 134.640625 191.628906 C 134.640625 185.066406 133.199219 179.226562 130.574219 174.371094 C 130.574219 174.4375 130.574219 174.503906 130.574219 174.632812 C 130.574219 182.3125 124.339844 188.542969 116.726562 188.542969 C 109.050781 188.542969 102.882812 182.3125 102.882812 174.632812 C 102.882812 167.414062 108.457031 161.445312 115.480469 160.789062 C 111.738281 159.277344 107.605469 158.492188 103.210938 158.492188 C 85.097656 158.492188 71.515625 171.746094 71.515625 191.628906 C 71.449219 211.511719 85.03125 224.765625 103.144531 224.765625 Z M 271.851562 239.136719 C 246.128906 239.136719 226.640625 220.109375 226.640625 191.628906 C 226.640625 163.148438 246.128906 144.121094 271.851562 144.121094 C 297.773438 144.121094 317.261719 163.148438 317.261719 191.628906 C 317.261719 220.171875 297.773438 239.136719 271.851562 239.136719 Z M 261.15625 195.304688 C 257.417969 195.304688 254.398438 198.324219 254.398438 202.0625 C 254.398438 205.804688 257.417969 208.820312 261.15625 208.820312 C 264.898438 208.820312 267.917969 205.804688 267.917969 202.0625 C 267.917969 198.386719 264.898438 195.304688 261.15625 195.304688 Z M 271.917969 158.554688 C 254.003906 158.554688 240.421875 171.8125 240.421875 191.695312 C 240.421875 211.578125 254.003906 224.832031 271.917969 224.832031 C 290.03125 224.832031 303.613281 211.578125 303.613281 191.695312 C 303.613281 185.132812 302.167969 179.359375 299.546875 174.4375 C 299.546875 174.503906 299.546875 174.566406 299.546875 174.699219 C 299.546875 182.375 293.3125 188.609375 285.699219 188.609375 C 278.023438 188.609375 271.851562 182.375 271.851562 174.699219 C 271.851562 167.480469 277.367188 161.507812 284.453125 160.851562 C 280.515625 159.34375 276.316406 158.554688 271.917969 158.554688 Z M 210.433594 80.664062 L 210.433594 252.589844 L 226.179688 228.507812 C 236.15625 244.976562 253.085938 253.769531 273.230469 253.769531 C 308.011719 253.769531 333.929688 228.507812 333.929688 191.695312 C 333.929688 154.882812 308.011719 129.816406 273.230469 129.816406 C 253.742188 129.816406 237.074219 138.148438 226.902344 153.898438 L 226.902344 80.664062 Z M 187.53125 278.96875 C 178.015625 278.96875 168.894531 277.460938 160.363281 274.769531 C 151.503906 271.949219 143.238281 267.75 135.886719 262.433594 L 126.964844 274.835938 C 135.625 281.070312 145.335938 285.992188 155.707031 289.335938 C 165.746094 292.554688 176.441406 294.324219 187.53125 294.324219 C 198.554688 294.324219 209.25 292.554688 219.355469 289.335938 C 229.726562 285.992188 239.4375 281.070312 248.097656 274.835938 L 239.175781 262.433594 C 231.757812 267.75 223.558594 271.949219 214.699219 274.769531 C 206.167969 277.460938 197.046875 278.96875 187.53125 278.96875 Z M 164.5625 252.589844 L 164.5625 80.664062 L 148.09375 80.664062 L 148.09375 153.898438 C 137.921875 138.148438 121.1875 129.816406 101.765625 129.816406 C 66.988281 129.816406 41.066406 154.816406 41.066406 191.628906 C 41.066406 228.441406 66.988281 253.707031 101.765625 253.707031 C 121.910156 253.707031 138.839844 244.914062 148.816406 228.441406 Z M 164.5625 252.589844 " fill-opacity="1" fill-rule="evenodd"/>
  </g>
</svg>
